<?xml version="1.0" encoding="UTF-8"?>
<svg xmlns="http://www.w3.org/2000/svg" xmlns:xlink="http://www.w3.org/1999/xlink" width="80pt" height="80pt" viewBox="0 0 80 80" version="1.1">
<g id="surface1">
<path style=" stroke:none;fill-rule:nonzero;fill:rgb(16.078431%,64.705882%,87.058824%);fill-opacity:1;" d="M 17.214844 43.328125 L 16.496094 43.328125 L 16.496094 39.089844 C 16.496094 38.769531 16.496094 38.335938 16.527344 37.871094 C 16.464844 38.160156 16.382812 38.367188 16.351562 38.480469 L 14.175781 43.328125 L 13.824219 43.328125 L 11.679688 38.527344 C 11.617188 38.382812 11.566406 38.175781 11.503906 37.886719 C 11.503906 38.144531 11.503906 38.527344 11.503906 39.105469 L 11.503906 43.34375 L 10.785156 43.34375 L 10.785156 37.039062 L 11.742188 37.039062 L 13.664062 41.425781 C 13.808594 41.742188 13.921875 42.03125 13.953125 42.175781 L 13.984375 42.175781 C 14.128906 41.824219 14.191406 41.566406 14.304688 41.390625 L 16.257812 37.007812 L 17.183594 37.007812 L 17.183594 43.328125 Z M 17.214844 43.328125 "/>
<path style=" stroke:none;fill-rule:nonzero;fill:rgb(16.078431%,64.705882%,87.058824%);fill-opacity:1;" d="M 18.910156 37.664062 C 18.769531 37.664062 18.65625 37.632812 18.59375 37.519531 C 18.527344 37.40625 18.449219 37.3125 18.449219 37.199219 C 18.449219 37.089844 18.480469 36.945312 18.59375 36.878906 C 18.703125 36.769531 18.800781 36.734375 18.910156 36.734375 C 19.054688 36.734375 19.167969 36.769531 19.230469 36.878906 C 19.34375 36.992188 19.375 37.089844 19.375 37.199219 C 19.375 37.34375 19.34375 37.457031 19.230469 37.519531 C 19.167969 37.632812 19.054688 37.664062 18.910156 37.664062 Z M 19.28125 43.328125 L 18.558594 43.328125 L 18.558594 38.800781 L 19.28125 38.800781 Z M 19.28125 43.328125 "/>
<path style=" stroke:none;fill-rule:nonzero;fill:rgb(16.078431%,64.705882%,87.058824%);fill-opacity:1;" d="M 23.550781 43.121094 C 23.199219 43.328125 22.800781 43.441406 22.304688 43.441406 C 21.664062 43.441406 21.136719 43.230469 20.734375 42.800781 C 20.351562 42.367188 20.128906 41.839844 20.128906 41.167969 C 20.128906 40.414062 20.335938 39.855469 20.769531 39.390625 C 21.265625 38.960938 21.808594 38.71875 22.511719 38.71875 C 22.894531 38.71875 23.265625 38.785156 23.585938 38.976562 L 23.585938 39.726562 C 23.265625 39.472656 22.910156 39.375 22.511719 39.375 C 22.046875 39.375 21.695312 39.550781 21.375 39.871094 C 21.089844 40.191406 20.945312 40.625 20.945312 41.152344 C 20.945312 41.679688 21.089844 42.078125 21.375 42.398438 C 21.664062 42.71875 22.015625 42.863281 22.480469 42.863281 C 22.863281 42.863281 23.230469 42.71875 23.585938 42.480469 L 23.585938 43.152344 L 23.550781 43.152344 Z M 23.550781 43.121094 "/>
<path style=" stroke:none;fill-rule:nonzero;fill:rgb(16.078431%,64.705882%,87.058824%);fill-opacity:1;" d="M 26.785156 39.550781 C 26.640625 39.441406 26.464844 39.40625 26.207031 39.40625 C 25.886719 39.40625 25.632812 39.550781 25.425781 39.839844 C 25.214844 40.128906 25.105469 40.511719 25.105469 41.007812 L 25.105469 43.328125 L 24.382812 43.328125 L 24.382812 38.800781 L 25.105469 38.800781 L 25.105469 39.726562 C 25.214844 39.40625 25.359375 39.152344 25.566406 38.976562 C 25.777344 38.800781 26.03125 38.71875 26.289062 38.71875 C 26.464844 38.71875 26.609375 38.753906 26.71875 38.785156 L 26.71875 39.535156 L 26.785156 39.535156 Z M 26.785156 39.550781 "/>
<path style=" stroke:none;fill-rule:nonzero;fill:rgb(16.078431%,64.705882%,87.058824%);fill-opacity:1;" d="M 29.105469 43.441406 C 28.433594 43.441406 27.886719 43.230469 27.503906 42.800781 C 27.121094 42.367188 26.894531 41.839844 26.894531 41.121094 C 26.894531 40.367188 27.105469 39.761719 27.503906 39.34375 C 27.886719 38.910156 28.496094 38.703125 29.214844 38.703125 C 29.886719 38.703125 30.433594 38.910156 30.785156 39.3125 C 31.167969 39.742188 31.359375 40.304688 31.359375 41.023438 C 31.359375 41.742188 31.152344 42.304688 30.753906 42.734375 C 30.320312 43.183594 29.777344 43.441406 29.105469 43.441406 Z M 29.136719 39.3125 C 28.671875 39.3125 28.320312 39.457031 28.03125 39.777344 C 27.742188 40.097656 27.648438 40.527344 27.648438 41.089844 C 27.648438 41.617188 27.792969 42.046875 28.03125 42.335938 C 28.320312 42.65625 28.671875 42.800781 29.136719 42.800781 C 29.601562 42.800781 29.953125 42.65625 30.207031 42.335938 C 30.464844 42.046875 30.59375 41.617188 30.59375 41.054688 C 30.59375 40.480469 30.449219 40.0625 30.207031 39.777344 C 29.953125 39.488281 29.601562 39.3125 29.136719 39.3125 Z M 29.136719 39.3125 "/>
<path style=" stroke:none;fill-rule:nonzero;fill:rgb(16.078431%,64.705882%,87.058824%);fill-opacity:1;" d="M 31.984375 43.152344 L 31.984375 42.367188 C 32.367188 42.65625 32.800781 42.800781 33.265625 42.800781 C 33.902344 42.800781 34.222656 42.59375 34.222656 42.160156 C 34.222656 42.046875 34.191406 41.953125 34.160156 41.839844 C 34.097656 41.777344 34.015625 41.695312 33.953125 41.632812 C 33.839844 41.566406 33.742188 41.519531 33.632812 41.457031 C 33.519531 41.425781 33.375 41.34375 33.246094 41.3125 C 33.039062 41.246094 32.894531 41.167969 32.71875 41.054688 C 32.574219 40.992188 32.433594 40.878906 32.335938 40.769531 C 32.222656 40.65625 32.160156 40.558594 32.128906 40.414062 C 32.097656 40.273438 32.0625 40.128906 32.0625 39.953125 C 32.0625 39.742188 32.097656 39.566406 32.207031 39.375 C 32.273438 39.3125 32.382812 39.167969 32.558594 39.054688 C 32.734375 38.945312 32.910156 38.878906 33.089844 38.800781 C 33.296875 38.734375 33.519531 38.6875 33.726562 38.6875 C 34.113281 38.6875 34.480469 38.753906 34.769531 38.894531 L 34.769531 39.617188 C 34.449219 39.40625 34.046875 39.296875 33.632812 39.296875 C 33.488281 39.296875 33.375 39.296875 33.28125 39.328125 C 33.167969 39.359375 33.070312 39.390625 32.992188 39.472656 C 32.929688 39.535156 32.847656 39.585938 32.816406 39.679688 C 32.785156 39.742188 32.753906 39.855469 32.753906 39.9375 C 32.753906 40.046875 32.785156 40.144531 32.816406 40.222656 C 32.847656 40.289062 32.929688 40.367188 32.992188 40.433594 C 33.054688 40.496094 33.167969 40.542969 33.28125 40.609375 C 33.390625 40.640625 33.535156 40.71875 33.664062 40.785156 C 33.871094 40.847656 34.046875 40.929688 34.191406 41.039062 C 34.335938 41.105469 34.480469 41.214844 34.574219 41.328125 C 34.6875 41.441406 34.785156 41.535156 34.832031 41.679688 C 34.894531 41.824219 34.945312 41.96875 34.945312 42.144531 C 34.945312 42.351562 34.910156 42.574219 34.800781 42.71875 C 34.6875 42.894531 34.59375 43.007812 34.414062 43.105469 C 34.238281 43.214844 34.0625 43.28125 33.839844 43.359375 C 33.632812 43.390625 33.40625 43.425781 33.167969 43.425781 C 32.734375 43.441406 32.304688 43.328125 31.984375 43.152344 Z M 31.984375 43.152344 "/>
<path style=" stroke:none;fill-rule:nonzero;fill:rgb(16.078431%,64.705882%,87.058824%);fill-opacity:1;" d="M 37.726562 43.441406 C 37.054688 43.441406 36.511719 43.230469 36.128906 42.800781 C 35.742188 42.367188 35.519531 41.839844 35.519531 41.121094 C 35.519531 40.367188 35.726562 39.761719 36.128906 39.34375 C 36.59375 38.910156 37.121094 38.703125 37.839844 38.703125 C 38.511719 38.703125 39.054688 38.910156 39.40625 39.3125 C 39.792969 39.742188 39.984375 40.304688 39.984375 41.023438 C 39.984375 41.742188 39.777344 42.304688 39.375 42.734375 C 38.929688 43.183594 38.398438 43.441406 37.726562 43.441406 Z M 37.761719 39.3125 C 37.296875 39.3125 36.945312 39.457031 36.65625 39.777344 C 36.367188 40.097656 36.273438 40.527344 36.273438 41.089844 C 36.273438 41.617188 36.414062 42.046875 36.65625 42.335938 C 36.945312 42.65625 37.296875 42.800781 37.761719 42.800781 C 38.222656 42.800781 38.574219 42.65625 38.832031 42.335938 C 39.089844 42.046875 39.214844 41.617188 39.214844 41.054688 C 39.214844 40.480469 39.070312 40.0625 38.832031 39.777344 C 38.609375 39.488281 38.222656 39.3125 37.761719 39.3125 Z M 37.761719 39.3125 "/>
<path style=" stroke:none;fill-rule:nonzero;fill:rgb(16.078431%,64.705882%,87.058824%);fill-opacity:1;" d="M 45.550781 39.457031 L 45.550781 38.816406 L 44.414062 38.816406 L 44.414062 37.503906 L 43.695312 37.761719 L 43.695312 38.863281 L 41.742188 38.863281 L 41.742188 38.144531 C 41.742188 37.503906 42 37.183594 42.496094 37.183594 C 42.671875 37.183594 42.816406 37.214844 42.960938 37.296875 L 42.960938 36.65625 C 42.816406 36.625 42.640625 36.59375 42.433594 36.59375 C 42.046875 36.59375 41.679688 36.734375 41.390625 37.023438 C 41.105469 37.3125 41.007812 37.664062 41.007812 38.128906 L 41.007812 38.847656 L 40.222656 38.847656 L 40.222656 39.457031 L 41.007812 39.457031 L 41.007812 43.375 L 41.726562 43.375 L 41.726562 39.488281 L 43.679688 39.488281 L 43.679688 42.160156 C 43.679688 43.054688 44.0625 43.472656 44.847656 43.472656 C 45.136719 43.472656 45.34375 43.441406 45.519531 43.328125 L 45.519531 42.71875 C 45.375 42.832031 45.230469 42.863281 45.054688 42.863281 C 44.800781 42.863281 44.671875 42.800781 44.558594 42.6875 C 44.449219 42.542969 44.414062 42.335938 44.414062 42.046875 L 44.414062 39.488281 L 45.550781 39.488281 Z M 45.550781 39.457031 "/>
<path style=" stroke:none;fill-rule:nonzero;fill:rgb(16.078431%,64.705882%,87.058824%);fill-opacity:1;" d="M 53.503906 43.328125 L 52.6875 43.328125 L 52.015625 41.550781 L 49.34375 41.550781 L 48.703125 43.328125 L 47.886719 43.328125 L 50.351562 37.023438 L 51.105469 37.023438 Z M 51.792969 40.878906 L 50.800781 38.207031 C 50.769531 38.144531 50.734375 38 50.6875 37.777344 C 50.65625 37.953125 50.625 38.097656 50.574219 38.207031 L 49.617188 40.878906 Z M 51.792969 40.878906 "/>
<path style=" stroke:none;fill-rule:nonzero;fill:rgb(16.078431%,64.705882%,87.058824%);fill-opacity:1;" d="M 57.230469 39.023438 L 54.558594 42.6875 L 57.199219 42.6875 L 57.199219 43.328125 L 53.535156 43.328125 L 53.535156 43.121094 L 56.207031 39.457031 L 53.777344 39.457031 L 53.777344 38.800781 L 57.230469 38.800781 Z M 57.230469 39.023438 "/>
<path style=" stroke:none;fill-rule:nonzero;fill:rgb(16.078431%,64.705882%,87.058824%);fill-opacity:1;" d="M 61.585938 43.328125 L 60.863281 43.328125 L 60.863281 42.609375 C 60.574219 43.136719 60.113281 43.425781 59.472656 43.425781 C 58.398438 43.425781 57.871094 42.785156 57.871094 41.503906 L 57.871094 38.800781 L 58.59375 38.800781 L 58.59375 41.359375 C 58.59375 42.320312 58.945312 42.785156 59.695312 42.785156 C 60.046875 42.785156 60.335938 42.640625 60.542969 42.398438 C 60.753906 42.144531 60.894531 41.792969 60.894531 41.359375 L 60.894531 38.800781 L 61.617188 38.800781 L 61.617188 43.328125 Z M 61.585938 43.328125 "/>
<path style=" stroke:none;fill-rule:nonzero;fill:rgb(16.078431%,64.705882%,87.058824%);fill-opacity:1;" d="M 65.136719 39.550781 C 64.992188 39.441406 64.816406 39.40625 64.609375 39.40625 C 64.289062 39.40625 64.03125 39.550781 63.824219 39.839844 C 63.617188 40.128906 63.503906 40.511719 63.503906 41.007812 L 63.503906 43.328125 L 62.785156 43.328125 L 62.785156 38.800781 L 63.503906 38.800781 L 63.503906 39.726562 C 63.617188 39.40625 63.761719 39.152344 63.96875 38.976562 C 64.175781 38.800781 64.433594 38.71875 64.6875 38.71875 C 64.863281 38.71875 65.007812 38.753906 65.121094 38.785156 L 65.121094 39.535156 L 65.136719 39.535156 Z M 65.136719 39.550781 "/>
<path style=" stroke:none;fill-rule:nonzero;fill:rgb(16.078431%,64.705882%,87.058824%);fill-opacity:1;" d="M 69.199219 41.230469 L 66.03125 41.230469 C 66.03125 41.726562 66.175781 42.128906 66.414062 42.398438 C 66.671875 42.6875 67.023438 42.785156 67.488281 42.785156 C 67.984375 42.785156 68.449219 42.609375 68.878906 42.289062 L 68.878906 42.960938 C 68.496094 43.246094 67.953125 43.390625 67.3125 43.390625 C 66.671875 43.390625 66.175781 43.183594 65.824219 42.785156 C 65.472656 42.398438 65.296875 41.792969 65.296875 41.070312 C 65.296875 40.351562 65.503906 39.792969 65.902344 39.359375 C 66.289062 38.929688 66.800781 38.6875 67.359375 38.6875 C 67.921875 38.6875 68.398438 38.863281 68.71875 39.265625 C 69.039062 39.648438 69.214844 40.191406 69.214844 40.832031 L 69.214844 41.230469 Z M 68.449219 40.625 C 68.449219 40.191406 68.335938 39.871094 68.160156 39.664062 C 67.953125 39.457031 67.695312 39.3125 67.34375 39.3125 C 66.992188 39.3125 66.703125 39.425781 66.496094 39.664062 C 66.238281 39.921875 66.113281 40.238281 66.0625 40.625 Z M 68.449219 40.625 "/>
</g>
</svg>
