<?xml version="1.0" encoding="UTF-8"?>
<svg xmlns="http://www.w3.org/2000/svg" xmlns:xlink="http://www.w3.org/1999/xlink" width="80pt" height="30pt" viewBox="0 0 80 30" version="1.1">
<g id="surface1">
<path style=" stroke:none;fill-rule:nonzero;fill:rgb(12.54902%,10.980392%,11.372549%);fill-opacity:1;" d="M 25.847656 11.003906 C 24.28125 11.003906 22.53125 11.609375 22.167969 13.589844 C 22.128906 13.800781 22.265625 13.902344 22.402344 13.933594 L 24.007812 14.125 C 24.15625 14.117188 24.257812 13.957031 24.285156 13.804688 C 24.421875 13.121094 24.984375 12.800781 25.613281 12.800781 C 25.949219 12.800781 26.332031 12.914062 26.53125 13.226562 C 26.761719 13.574219 26.746094 14.042969 26.746094 14.445312 L 26.746094 14.679688 C 25.792969 14.789062 24.535156 14.855469 23.644531 15.257812 C 22.613281 15.714844 21.890625 16.644531 21.890625 18.011719 C 21.890625 19.765625 22.964844 20.640625 24.351562 20.640625 C 25.519531 20.640625 26.164062 20.363281 27.066406 19.421875 C 27.367188 19.867188 27.460938 20.066406 28.007812 20.53125 C 28.132812 20.601562 28.289062 20.585938 28.394531 20.488281 L 28.394531 20.511719 C 28.722656 20.210938 29.320312 19.667969 29.65625 19.378906 C 29.789062 19.265625 29.761719 19.082031 29.65625 18.929688 C 29.355469 18.503906 29.035156 18.164062 29.035156 17.371094 L 29.035156 14.742188 C 29.035156 13.632812 29.128906 12.605469 28.328125 11.839844 C 27.699219 11.21875 26.644531 11.003906 25.847656 11.003906 Z M 47.414062 11.003906 C 45.847656 11.003906 44.101562 11.609375 43.734375 13.589844 C 43.695312 13.800781 43.832031 13.902344 43.96875 13.933594 L 45.574219 14.125 C 45.722656 14.117188 45.824219 13.957031 45.851562 13.804688 C 45.988281 13.121094 46.550781 12.800781 47.179688 12.800781 C 47.519531 12.800781 47.898438 12.914062 48.097656 13.226562 C 48.328125 13.574219 48.292969 14.042969 48.292969 14.445312 L 48.292969 14.679688 C 47.335938 14.789062 46.105469 14.855469 45.210938 15.257812 C 44.179688 15.714844 43.457031 16.644531 43.457031 18.011719 C 43.457031 19.765625 44.53125 20.640625 45.917969 20.640625 C 47.085938 20.640625 47.730469 20.363281 48.632812 19.421875 C 48.933594 19.867188 49.03125 20.066406 49.574219 20.53125 C 49.699219 20.597656 49.851562 20.589844 49.960938 20.488281 L 49.960938 20.511719 C 50.289062 20.210938 50.886719 19.667969 51.222656 19.378906 C 51.355469 19.265625 51.324219 19.082031 51.222656 18.929688 C 50.921875 18.503906 50.601562 18.164062 50.601562 17.371094 L 50.601562 14.742188 C 50.601562 13.632812 50.675781 12.605469 49.875 11.839844 C 49.242188 11.21875 48.214844 11.003906 47.414062 11.003906 Z M 35.28125 11.089844 C 34.269531 11.089844 33.519531 11.601562 33.121094 12.691406 L 33.101562 12.691406 L 33.101562 11.5625 C 33.089844 11.402344 32.960938 11.273438 32.800781 11.261719 L 31.257812 11.261719 C 31.082031 11.265625 30.941406 11.40625 30.9375 11.582031 L 30.9375 20.234375 C 30.953125 20.390625 31.078125 20.519531 31.238281 20.535156 L 32.886719 20.535156 C 33.0625 20.53125 33.203125 20.390625 33.207031 20.210938 L 33.207031 15.621094 C 33.207031 14.617188 33.15625 13.25 34.339844 13.25 C 35.507812 13.25 35.347656 14.65625 35.347656 15.621094 L 35.347656 20.210938 C 35.347656 20.375 35.480469 20.523438 35.644531 20.535156 L 37.292969 20.535156 C 37.46875 20.53125 37.613281 20.390625 37.613281 20.210938 L 37.613281 15.621094 C 37.613281 15.128906 37.59375 14.414062 37.765625 13.976562 C 37.933594 13.539062 38.347656 13.25 38.75 13.25 C 39.226562 13.25 39.589844 13.414062 39.710938 13.996094 C 39.789062 14.34375 39.753906 15.257812 39.753906 15.621094 L 39.753906 20.214844 C 39.753906 20.375 39.886719 20.523438 40.054688 20.535156 L 41.703125 20.535156 C 41.878906 20.53125 42.019531 20.390625 42.023438 20.214844 L 42.023438 14.746094 C 42.023438 13.816406 42.117188 12.761719 41.59375 12.03125 C 41.132812 11.375 40.378906 11.089844 39.691406 11.089844 C 38.722656 11.089844 37.820312 11.601562 37.421875 12.695312 C 36.960938 11.601562 36.3125 11.089844 35.28125 11.089844 Z M 63.289062 11.089844 C 60.910156 11.089844 59.589844 13.179688 59.589844 15.875 C 59.589844 18.554688 60.894531 20.703125 63.289062 20.703125 C 65.59375 20.703125 67.054688 18.601562 67.054688 15.960938 C 67.054688 13.230469 65.730469 11.089844 63.289062 11.089844 Z M 72.683594 11.089844 C 71.546875 11.089844 70.894531 11.660156 70.4375 12.84375 L 70.414062 12.84375 L 70.414062 11.515625 C 70.386719 11.382812 70.257812 11.289062 70.113281 11.28125 L 68.59375 11.28125 C 68.433594 11.277344 68.292969 11.398438 68.273438 11.558594 L 68.273438 20.210938 C 68.277344 20.378906 68.40625 20.515625 68.574219 20.53125 L 70.199219 20.53125 C 70.375 20.53125 70.519531 20.386719 70.519531 20.210938 L 70.519531 15.554688 C 70.519531 14.972656 70.570312 14.4375 70.800781 13.910156 C 70.984375 13.492188 71.339844 13.226562 71.742188 13.226562 C 72.875 13.226562 72.769531 14.609375 72.769531 15.554688 L 72.769531 20.253906 C 72.789062 20.40625 72.914062 20.523438 73.066406 20.53125 L 74.714844 20.53125 C 74.875 20.53125 75.015625 20.410156 75.035156 20.253906 L 75.035156 14.808594 C 75.035156 13.96875 75.039062 12.804688 74.609375 12.113281 C 74.148438 11.371094 73.417969 11.089844 72.683594 11.089844 Z M 52.914062 11.242188 C 52.746094 11.242188 52.613281 11.375 52.613281 11.5625 L 52.613281 12.800781 C 52.613281 12.984375 52.742188 13.117188 52.914062 13.121094 L 55.738281 13.121094 L 52.503906 17.882812 C 52.308594 18.191406 52.292969 18.539062 52.292969 18.738281 L 52.292969 20 C 52.292969 20.179688 52.488281 20.378906 52.675781 20.277344 C 54.519531 19.273438 56.722656 19.363281 58.390625 20.253906 C 58.589844 20.367188 58.796875 20.160156 58.796875 19.976562 L 58.796875 18.652344 C 58.785156 18.453125 58.671875 18.277344 58.496094 18.183594 C 57.550781 17.640625 56.453125 17.472656 55.414062 17.5 L 58.21875 13.398438 C 58.476562 13.03125 58.625 12.808594 58.625 12.628906 L 58.625 11.5625 C 58.625 11.378906 58.5 11.242188 58.324219 11.242188 Z M 63.289062 12.863281 C 63.8125 12.863281 64.195312 13.097656 64.382812 13.699219 C 64.59375 14.390625 64.617188 15.253906 64.617188 15.984375 C 64.617188 17.09375 64.566406 18.929688 63.289062 18.929688 C 62 18.929688 62.007812 16.65625 62.007812 15.597656 C 62.007812 14.542969 62.078125 12.863281 63.289062 12.863281 Z M 26.722656 16.027344 L 26.722656 16.390625 C 26.722656 17.046875 26.746094 17.597656 26.421875 18.183594 C 26.160156 18.65625 25.75 18.953125 25.289062 18.953125 C 24.660156 18.953125 24.285156 18.441406 24.285156 17.714844 C 24.285156 16.277344 25.535156 16.027344 26.722656 16.027344 Z M 48.289062 16.027344 L 48.289062 16.390625 C 48.289062 17.046875 48.316406 17.597656 47.992188 18.183594 C 47.730469 18.65625 47.320312 18.953125 46.855469 18.953125 C 46.226562 18.953125 45.851562 18.441406 45.851562 17.714844 C 45.851562 16.277344 47.101562 16.027344 48.289062 16.027344 Z M 48.289062 16.027344 "/>
<path style=" stroke:none;fill-rule:nonzero;fill:rgb(0%,0%,0%);fill-opacity:1;" d="M 58.96875 20.8125 L 58.96875 22.050781 L 59.800781 22.050781 L 59.800781 20.8125 Z M 34.769531 21.023438 L 34.769531 29.847656 L 35.539062 29.847656 L 35.539062 29.054688 C 35.703125 29.371094 35.890625 29.605469 36.117188 29.761719 C 36.34375 29.917969 36.601562 29.996094 36.886719 29.996094 C 37.453125 29.996094 37.941406 29.707031 38.363281 29.121094 C 38.785156 28.53125 39.003906 27.683594 39.003906 26.597656 C 39.003906 25.890625 38.914062 25.304688 38.726562 24.804688 C 38.539062 24.308594 38.289062 23.9375 37.976562 23.695312 C 37.664062 23.449219 37.3125 23.308594 36.929688 23.308594 C 36.664062 23.308594 36.40625 23.382812 36.179688 23.523438 C 35.957031 23.664062 35.777344 23.898438 35.601562 24.1875 L 35.601562 21.023438 Z M 42.683594 23.097656 C 42.105469 23.097656 41.644531 23.269531 41.316406 23.609375 C 40.988281 23.949219 40.824219 24.390625 40.824219 24.933594 C 40.824219 25.25 40.894531 25.519531 41.015625 25.765625 C 41.136719 26.015625 41.3125 26.21875 41.53125 26.367188 C 41.75 26.515625 42.183594 26.707031 42.835938 26.921875 C 43.285156 27.066406 43.550781 27.1875 43.667969 27.285156 C 43.839844 27.421875 43.925781 27.609375 43.925781 27.859375 C 43.925781 28.152344 43.824219 28.398438 43.625 28.585938 C 43.429688 28.777344 43.152344 28.863281 42.792969 28.863281 C 42.429688 28.863281 42.132812 28.761719 41.914062 28.542969 C 41.695312 28.324219 41.578125 27.992188 41.53125 27.539062 L 40.695312 27.710938 C 40.882812 29.082031 41.566406 29.761719 42.75 29.761719 C 43.378906 29.761719 43.859375 29.582031 44.226562 29.207031 C 44.589844 28.828125 44.78125 28.320312 44.78125 27.710938 C 44.78125 27.378906 44.722656 27.09375 44.609375 26.855469 C 44.496094 26.617188 44.339844 26.4375 44.140625 26.300781 C 43.933594 26.164062 43.480469 25.976562 42.789062 25.746094 C 42.289062 25.570312 41.992188 25.441406 41.890625 25.363281 C 41.722656 25.226562 41.636719 25.042969 41.636719 24.804688 C 41.636719 24.566406 41.714844 24.363281 41.890625 24.207031 C 42.070312 24.054688 42.34375 23.972656 42.707031 23.972656 C 43.34375 23.972656 43.699219 24.324219 43.773438 25.019531 L 44.589844 24.890625 C 44.53125 24.449219 44.4375 24.101562 44.289062 23.867188 C 44.140625 23.628906 43.925781 23.429688 43.648438 23.289062 C 43.371094 23.148438 43.050781 23.097656 42.683594 23.097656 Z M 47.800781 23.097656 C 47.128906 23.097656 46.566406 23.371094 46.128906 23.949219 C 45.695312 24.53125 45.488281 25.371094 45.488281 26.472656 C 45.488281 27.535156 45.699219 28.367188 46.128906 28.929688 C 46.5625 29.492188 47.121094 29.761719 47.820312 29.761719 C 48.375 29.761719 48.835938 29.597656 49.210938 29.25 C 49.585938 28.902344 49.859375 28.394531 50.003906 27.710938 L 49.148438 27.5625 C 48.902344 28.433594 48.449219 28.863281 47.820312 28.863281 C 47.417969 28.863281 47.09375 28.695312 46.8125 28.332031 C 46.535156 27.964844 46.375 27.425781 46.34375 26.707031 L 50.023438 26.707031 L 50.023438 26.40625 C 50.023438 25.328125 49.808594 24.519531 49.378906 23.949219 C 48.953125 23.382812 48.4375 23.097656 47.800781 23.097656 Z M 52.871094 23.097656 C 52.667969 23.097656 52.496094 23.164062 52.335938 23.308594 C 52.175781 23.457031 51.992188 23.757812 51.800781 24.207031 L 51.800781 23.222656 L 51.050781 23.222656 L 51.050781 29.609375 L 51.886719 29.609375 L 51.886719 26.28125 C 51.886719 25.816406 51.929688 25.367188 52.035156 24.953125 C 52.097656 24.71875 52.210938 24.53125 52.355469 24.398438 C 52.503906 24.269531 52.671875 24.207031 52.847656 24.207031 C 53.046875 24.207031 53.242188 24.285156 53.449219 24.441406 L 53.726562 23.4375 C 53.433594 23.207031 53.148438 23.097656 52.871094 23.097656 Z M 63.097656 23.097656 C 62.4375 23.097656 61.890625 23.375 61.46875 23.929688 C 61.050781 24.484375 60.828125 25.320312 60.828125 26.429688 C 60.828125 27.53125 61.054688 28.363281 61.46875 28.929688 C 61.886719 29.492188 62.410156 29.761719 63.054688 29.761719 C 63.585938 29.761719 64.042969 29.5625 64.421875 29.164062 C 64.804688 28.761719 65.035156 28.171875 65.128906 27.410156 L 64.316406 27.285156 C 64.253906 27.828125 64.113281 28.21875 63.886719 28.480469 C 63.664062 28.738281 63.390625 28.863281 63.074219 28.863281 C 62.671875 28.863281 62.328125 28.675781 62.070312 28.285156 C 61.808594 27.898438 61.683594 27.277344 61.683594 26.40625 C 61.683594 25.566406 61.820312 24.957031 62.089844 24.570312 C 62.359375 24.183594 62.707031 23.972656 63.117188 23.972656 C 63.390625 23.972656 63.628906 24.078125 63.824219 24.292969 C 64.019531 24.503906 64.152344 24.84375 64.230469 25.273438 L 65.042969 25.105469 C 64.945312 24.433594 64.730469 23.921875 64.378906 23.585938 C 64.03125 23.25 63.605469 23.097656 63.097656 23.097656 Z M 67.867188 23.097656 C 67.199219 23.097656 66.636719 23.371094 66.199219 23.949219 C 65.761719 24.53125 65.558594 25.371094 65.558594 26.472656 C 65.558594 27.535156 65.765625 28.367188 66.199219 28.929688 C 66.632812 29.492188 67.191406 29.761719 67.890625 29.761719 C 68.445312 29.761719 68.902344 29.597656 69.28125 29.25 C 69.65625 28.902344 69.929688 28.394531 70.070312 27.710938 L 69.214844 27.5625 C 68.96875 28.433594 68.535156 28.863281 67.910156 28.863281 C 67.511719 28.863281 67.164062 28.695312 66.882812 28.332031 C 66.605469 27.964844 66.445312 27.425781 66.414062 26.707031 L 70.09375 26.707031 L 70.09375 26.40625 C 70.09375 25.328125 69.878906 24.519531 69.449219 23.949219 C 69.027344 23.382812 68.507812 23.097656 67.867188 23.097656 Z M 72.8125 23.097656 C 72.230469 23.097656 71.769531 23.269531 71.441406 23.609375 C 71.113281 23.949219 70.949219 24.390625 70.949219 24.933594 C 70.949219 25.25 71 25.519531 71.121094 25.765625 C 71.242188 26.015625 71.414062 26.21875 71.632812 26.367188 C 71.851562 26.515625 72.289062 26.707031 72.9375 26.921875 C 73.386719 27.066406 73.675781 27.1875 73.792969 27.285156 C 73.964844 27.421875 74.050781 27.609375 74.050781 27.859375 C 74.050781 28.152344 73.949219 28.398438 73.75 28.585938 C 73.554688 28.777344 73.277344 28.863281 72.917969 28.863281 C 72.554688 28.863281 72.257812 28.761719 72.039062 28.542969 C 71.820312 28.324219 71.683594 27.992188 71.632812 27.539062 L 70.796875 27.710938 C 70.988281 29.082031 71.671875 29.761719 72.851562 29.761719 C 73.484375 29.761719 73.984375 29.582031 74.351562 29.207031 C 74.714844 28.828125 74.90625 28.320312 74.90625 27.710938 C 74.90625 27.378906 74.847656 27.09375 74.734375 26.855469 C 74.621094 26.617188 74.445312 26.4375 74.242188 26.300781 C 74.039062 26.164062 73.609375 25.976562 72.917969 25.746094 C 72.414062 25.570312 72.097656 25.441406 71.996094 25.363281 C 71.824219 25.226562 71.738281 25.042969 71.738281 24.804688 C 71.738281 24.566406 71.839844 24.363281 72.015625 24.207031 C 72.195312 24.054688 72.46875 23.972656 72.832031 23.972656 C 73.46875 23.972656 73.824219 24.324219 73.898438 25.019531 L 74.714844 24.890625 C 74.65625 24.449219 74.5625 24.101562 74.414062 23.867188 C 74.257812 23.617188 74.035156 23.417969 73.773438 23.289062 C 73.496094 23.148438 73.175781 23.097656 72.8125 23.097656 Z M 53.726562 23.222656 L 55.585938 29.613281 L 56.378906 29.613281 L 58.242188 23.222656 L 57.382812 23.222656 L 56.292969 27.132812 C 56.160156 27.605469 56.042969 28.015625 55.972656 28.351562 C 55.882812 27.925781 55.792969 27.480469 55.671875 27.046875 L 54.601562 23.222656 Z M 58.96875 23.222656 L 58.96875 29.613281 L 59.800781 29.613281 L 59.800781 23.222656 Z M 31.539062 23.308594 C 30.875 23.308594 30.34375 23.605469 29.910156 24.1875 C 29.480469 24.765625 29.25 25.605469 29.25 26.707031 C 29.25 27.769531 29.460938 28.578125 29.890625 29.140625 C 30.320312 29.703125 30.890625 29.996094 31.582031 29.996094 C 32.128906 29.996094 32.578125 29.808594 32.949219 29.460938 C 33.320312 29.117188 33.578125 28.605469 33.722656 27.925781 L 32.886719 27.796875 C 32.644531 28.667969 32.203125 29.097656 31.582031 29.097656 C 31.183594 29.097656 30.851562 28.929688 30.574219 28.566406 C 30.300781 28.199219 30.136719 27.65625 30.105469 26.941406 L 33.742188 26.941406 L 33.761719 26.640625 C 33.761719 25.5625 33.542969 24.734375 33.121094 24.164062 C 32.699219 23.59375 32.167969 23.308594 31.539062 23.308594 Z M 22.144531 23.460938 L 23.644531 29.847656 L 24.519531 29.847656 L 25.503906 24.933594 L 25.675781 26.023438 L 26.46875 29.847656 L 27.324219 29.847656 L 28.84375 23.460938 L 28.050781 23.460938 L 27.214844 27.15625 L 26.9375 28.394531 L 26.683594 27.15625 L 25.953125 23.460938 L 25.097656 23.460938 L 24.328125 27.199219 L 24.070312 28.523438 L 23.773438 27.15625 L 23 23.460938 Z M 75.398438 23.523438 L 75.398438 23.824219 L 76.214844 23.824219 L 76.214844 25.960938 L 76.535156 25.960938 L 76.535156 23.824219 L 77.347656 23.824219 L 77.347656 23.523438 Z M 77.667969 23.523438 L 77.667969 25.957031 L 77.96875 25.957031 L 77.96875 23.886719 L 78.671875 25.957031 L 78.972656 25.957031 L 79.679688 23.929688 L 79.679688 25.957031 L 80 25.957031 L 80 23.523438 L 79.550781 23.523438 L 78.972656 25.234375 C 78.914062 25.402344 78.875 25.527344 78.84375 25.617188 L 78.714844 25.253906 L 78.136719 23.523438 Z M 47.777344 23.972656 C 48.191406 23.972656 48.535156 24.171875 48.804688 24.570312 C 48.988281 24.84375 49.109375 25.257812 49.148438 25.808594 L 46.386719 25.808594 C 46.414062 25.25 46.570312 24.816406 46.835938 24.484375 C 47.101562 24.152344 47.402344 23.972656 47.777344 23.972656 Z M 67.847656 23.972656 C 68.261719 23.972656 68.605469 24.171875 68.875 24.570312 C 69.058594 24.84375 69.179688 25.257812 69.214844 25.808594 L 66.457031 25.808594 C 66.484375 25.25 66.640625 24.816406 66.90625 24.484375 C 67.167969 24.152344 67.472656 23.972656 67.847656 23.972656 Z M 31.539062 24.207031 C 31.949219 24.207031 32.277344 24.410156 32.542969 24.804688 C 32.726562 25.078125 32.847656 25.492188 32.886719 26.042969 L 30.167969 26.042969 C 30.195312 25.484375 30.332031 25.03125 30.597656 24.699219 C 30.859375 24.367188 31.167969 24.207031 31.539062 24.207031 Z M 36.84375 24.207031 C 37.214844 24.207031 37.53125 24.414062 37.785156 24.804688 C 38.039062 25.199219 38.148438 25.804688 38.148438 26.644531 C 38.148438 27.460938 38.027344 28.070312 37.765625 28.480469 C 37.5 28.890625 37.183594 29.101562 36.84375 29.101562 C 36.59375 29.101562 36.367188 29.015625 36.160156 28.84375 C 35.953125 28.671875 35.800781 28.425781 35.6875 28.09375 C 35.574219 27.765625 35.515625 27.261719 35.515625 26.601562 C 35.515625 25.820312 35.65625 25.238281 35.925781 24.828125 C 36.191406 24.414062 36.503906 24.207031 36.84375 24.207031 Z M 36.84375 24.207031 "/>
<path style=" stroke:none;fill-rule:nonzero;fill:rgb(96.862745%,65.882353%,5.098039%);fill-opacity:1;" d="M 10.152344 17.433594 L 6.964844 18.800781 L 9.917969 20.0625 L 13.339844 18.800781 Z M 5.359375 19.144531 L 5.253906 25.296875 L 9.917969 27.347656 L 9.917969 20.960938 Z M 14.945312 19.144531 L 10.730469 20.746094 L 10.730469 26.769531 L 14.945312 25.0625 Z M 19.972656 0.00390625 L 16.761719 1.371094 L 19.738281 2.632812 L 23.160156 1.371094 Z M 15.523438 1.820312 L 15.523438 7.972656 L 19.503906 9.125 L 19.632812 3.527344 Z M 24.421875 2.160156 L 20.65625 3.765625 L 20.65625 9.808594 L 24.421875 8.101562 Z M 4.898438 8.664062 L 1.710938 10.03125 L 4.664062 11.289062 L 8.085938 10.03125 Z M 0.105469 10.371094 L 0 16.523438 L 4.664062 18.574219 L 4.664062 12.1875 Z M 9.691406 10.371094 L 5.476562 11.972656 L 5.476562 17.996094 L 9.691406 16.289062 Z M 15.167969 8.4375 L 11.980469 9.804688 L 14.933594 11.0625 L 18.359375 9.804688 Z M 10.375 10.144531 L 10.269531 16.296875 L 14.933594 18.347656 L 14.933594 11.960938 Z M 19.960938 10.144531 L 15.746094 11.746094 L 15.746094 17.769531 L 19.960938 16.0625 Z M 30.003906 0.00390625 L 26.816406 1.371094 L 29.769531 2.632812 L 33.191406 1.371094 Z M 25.210938 1.714844 L 25.105469 7.863281 L 29.769531 9.914062 L 29.769531 3.527344 Z M 34.796875 1.714844 L 30.582031 3.316406 L 30.582031 9.339844 L 34.796875 7.628906 Z M 34.796875 1.714844 "/>
</g>
</svg>
